<mxfile host="app.diagrams.net" agent="Mozilla/5.0 (Macintosh; Intel Mac OS X 10.15; rv:136.0) Gecko/20100101 Firefox/136.0" version="26.2.2">
  <diagram name="Page-1" id="xKhlsxAtRhAonfhplPug">
    <mxGraphModel dx="1030" dy="613" grid="1" gridSize="10" guides="1" tooltips="1" connect="1" arrows="1" fold="1" page="1" pageScale="1" pageWidth="1920" pageHeight="1200" math="0" shadow="0">
      <root>
        <mxCell id="0" />
        <mxCell id="1" parent="0" />
        <mxCell id="PluMJd1qhxhPaZObRuaH-5" value="" style="rounded=1;whiteSpace=wrap;html=1;strokeColor=#336699;strokeWidth=2;" parent="1" vertex="1">
          <mxGeometry x="470" y="390" width="743" height="60" as="geometry" />
        </mxCell>
        <mxCell id="lkaNOGTGJZpjp38PW3jR-1" value="" style="shape=image;verticalLabelPosition=bottom;labelBackgroundColor=default;verticalAlign=top;aspect=fixed;imageAspect=0;image=data:image/png,iVBORw0KGgoAAAANSUhEUgAAAskAAAAqCAYAAABBesboAAABYWlDQ1BJQ0MgUHJvZmlsZQAAKJFtkLFLw1AQxr/YSqVmUBBBEMwmSis1VYqLUFtRoUOIitYtTWpabesziYibm/+A1MlNxNWpDh0EB8FJEBScHFycC1m0xHut2la9x3E/Pu57794BXaLGWMEPoFhyLHVhTlpPb0iBN/gwgh6EIWq6zeKKkqIWfNfOcB8h8PoQ5nfld0/ZpXqbvCkPnWWupNrf/o4IGllbp/pBKevMcgAhQqzsO4zzIfGARUMRH3M2m3zBOdPkaqNnRU0Q3xP36TnNIH4hDmXadLONi4U9/WsGPr2YLa0uUx2kHEYS80jRkaBARgyTmMEi7eh/z1TDk8AOGA5gIQ8TOTjkjpPCUECWeAkl6JhAiFhGhHKa7/r3DluacQREx+mpYEvbegWqJ0D/XUsb3abvzALXaaZZ2s9mBddvb0blJvdWgO6y59XWgMAYUH/yvPeK59XPAd8zed1PS1tjfxgNH8kAAABWZVhJZk1NACoAAAAIAAGHaQAEAAAAAQAAABoAAAAAAAOShgAHAAAAEgAAAESgAgAEAAAAAQAAAsmgAwAEAAAAAQAAACoAAAAAQVNDSUkAAABTY3JlZW5zaG90lNko4QAAAdVpVFh0WE1MOmNvbS5hZG9iZS54bXAAAAAAADx4OnhtcG1ldGEgeG1sbnM6eD0iYWRvYmU6bnM6bWV0YS8iIHg6eG1wdGs9IlhNUCBDb3JlIDYuMC4wIj4KICAgPHJkZjpSREYgeG1sbnM6cmRmPSJodHRwOi8vd3d3LnczLm9yZy8xOTk5LzAyLzIyLXJkZi1zeW50YXgtbnMjIj4KICAgICAgPHJkZjpEZXNjcmlwdGlvbiByZGY6YWJvdXQ9IiIKICAgICAgICAgICAgeG1sbnM6ZXhpZj0iaHR0cDovL25zLmFkb2JlLmNvbS9leGlmLzEuMC8iPgogICAgICAgICA8ZXhpZjpQaXhlbFlEaW1lbnNpb24+NDI8L2V4aWY6UGl4ZWxZRGltZW5zaW9uPgogICAgICAgICA8ZXhpZjpQaXhlbFhEaW1lbnNpb24+NzEzPC9leGlmOlBpeGVsWERpbWVuc2lvbj4KICAgICAgICAgPGV4aWY6VXNlckNvbW1lbnQ+U2NyZWVuc2hvdDwvZXhpZjpVc2VyQ29tbWVudD4KICAgICAgPC9yZGY6RGVzY3JpcHRpb24+CiAgIDwvcmRmOlJERj4KPC94OnhtcG1ldGE+ChSuuKgAAByvSURBVHgB7V0HeBXVtl5ASAiEUAIhhIQaSui9KqJAlKoIePWKIhob5SI8eI9P8VpA9KpXkQuoiGJBlCIivckNAmIoAqGFXkIJkBBKIIQS3v73YcfJnJJTZs45CWt935yZ2bP32mv+c+bMP2vWXrvIbSHEwggwAowAI8AIMAKMACPACDACuQgE5G7xhikI5PcMUqRIEVP6ZaWMACPACDACjAAjwAgwAu4jwCTZfezstrRFjPVlihxry1WZXcV8gBFgBBgBRoARYAQYAUbAKwgUESSNwy0MgloLpb1tbVdaUmxvW1uftxkBRsB/EcjKyqKrV6/S9evX5XLr1i1S/wO4vosVK0aBgYFyKVmyJAUHB/vvybBljAAjwAgwAsQk2aAfgboZ6tc5OTm5N0p9V7hxFi1aVBYrkqxf69vwPiPACPgPAiDCFy5coMzMTLp586ZLhgUEBFBISAiVLVtWEmiXGnNlRoARYAQYAdMRYJJsAMRaYoxtEGOIWqNM1VHdgQwrQqyIMtbacnVcteE1I8AI+A8CGRkZhEV/bbtqIa7zcuXKycXVtlyfEWAEGAFGwDwEmCR7iK26QSoiDGKsvMcoW7TqGK3fnEoHDl+itAvXZG8Vypag2jVD6Z5WEdSra7VcYgySzETZwy+EmzMCJiOAcIqzZ89Sdna2oT0FBQVReHi4DMcwVDErYwQYAUaAEXALgbuGJJ8+fZp+//13OnbsGFWqVIlat25NtWvXdgs01UhPkFUMIkjyouVHaMa8g3T2fJaqbnMdXj6YBvWLoV4P1cglyIhdZI+yTbi40EQEzLhGTDTXJ6oRd5yampr7lshoI/CQHBERwfHKRgPL+hgBRoARcAOBQk2SQVq///57mjt3LiUlJVnBExMTQz179qT4+HgqXbq01XFHBfYIMuISP/gsiRatPu6oudWxXl2q0uiXGhPiFEGQmShbQcQFJiBg5jVigrk+VQmCfOrUKa/YEBkZyUTZK0hzJ4wAI8AI2Eeg0JLkK1eu0NNPP01btmwhvMZs27YtNW3alGJjY+nIkSOSNG/cuFEOuqlZsybNmjWLKleubB8p3REVXoG1CrFwlyAr1VqirA+94PhkhRKvjULA7GvEKDv9QQ9CLE6ePGmaB1l/jrj+q1SpwqEXemB4nxFgBBgBLyLgFkkGKbx06ZIcle1FW13qCgR57dq11Lx5c5o+fTqFhYVZtUdM4YgRI2jJkiVUr149WrRokVM3Ja0XGZ444IH1LyuO0IfTdln140rBqBca0sMP1pCeZNwolUcZOpgou4Ik180PATOvkfz6LmjHT5w4YXgMcn4Y4OE+Kioqv2p8nBHwewR27cughN9PiEGurpnaqF4YdWof6Vojrs0IGIiA3clEEhMTacaMGXTgwAH52g8e2Oeff57q1KlDY8aMoQULFtD27dsJ+T79TWAbCHKzZs1o5syZVKpUKZsm4iY0efJkmbppxYoV9MUXX9CQIUNs1tUXaj3J2IYX+RsRg+ypQEePztEyPln1AZ1MkD1FlttrEbB3jSAuGdf9gw8+SC1atJBvYdy9RrT9FeRtZLAwepCeM3igT/SNzBeFTRp1mkQ7E/5R2E7L0POZ/sNe+vRb6zBBdPLy040p/olYQ/vTKzPqO9q2O43iR/2qV+/0/qvDWlHf7jWdrm9GxStZN2lFwnH67+8n6fiJS5SecU3co4tQdGRpqlK5FNWvXZ7694qhUsF2KZUZZrFOLyBg8xtds2YNvfDCC9SmTRsZpoBXjdrBKj169JB/3P5IkIHZ1KlTpUcYN3t7BFlhC2/tlClTqH379tLjPHjwYJcIKYisHKi36jidO2/JXqF0u7OGjkVCV59uNV2yw52+uM3di4C9awQk+fPPP5eDW0GSIZ5eIwUZZbwhAlF1R86cy6ZNOzKoft1QqhXtnjMBfYeGhnIe5Xy+gFXrTtCUGTso5XRmPjXzHn6mf30a9myjvIV+sLdAvJW0R5BhHo5VKF+CHhFvHf1d9h++6JGJu/al+5Qk/7T0ME2avp0ys25YnUfyofOE5df1KfTNnL008qVm1KtLdat6XFBwEbBJkn/66SfpGZ02bZpNkrlhwwZavnw5jRo1ShLErl27WiEwfPhw6tu3ryyHh3bevHkybVK7du1o3LhxueEP8EqvWrWK1q1bZ4hXGvHG+/bto8cff9xpD0zx4sVl/UmTJhHilEGY7QlIsRKQY8iNGzdo459nVLHHa+jq2SVa3hjRB0IuIOibPcoew3vXK3B0jajfl1orsFy5RlSbwrDGRCHaa97ZczqTlk2vjN8pwrAsLV4dUoeaxoY62zy3HvqGDbbCxXIr8QZ98OlW6d1zFYqv5+6RTXxJlB0R/P95oRn9vU+dPKc16+f99O9p22jcxE1yUQejI0Ppleea+F14gjvXjzonrHNu/XXP1Zabtd2i22ypesvSv9Ho8RuE9/iE3K9Xqzz1frAmNa0fRlGRIdJrfOHSdVqw/DDNWXyAzpy7Sm/+O5F2i9CSMUOamWWe23pv3LhNx05eouOnMoU3/LLUUz0qVHjDS1HVKqFUvHgRt3UX5oY2STLicxcvXkzjx4+XiyJpCogzZ87IVGr48SMbwwMPPKAOyTRrIKklSpSQZcgsAT3wSnfp0oW+++476aVGOTxUhw8fpvT0dLp48aIhJHnHjh2yX/QFgWds//79ctvWBwbrIYSke/fuBJK8efNmhyRZ6cC5YwGJRajFgSOueTCUHlvrnXsv0s/iwgsMDKJiAcWoaBFLSjjU1ZMXW+25rPAhEFi8KDUU8Xk1ol3LwmILCUfXyKFDh2QTrBGyBHH3GpGNXfxQNyhts63L/qbdJWfq5GngwQ5m0nNHkg9l5hJktN++66JbJBltYYORJPnylRs09ZtdlHzwPNQ7JZGVQmjwwIZUJcJ26JpTSkyshNffEP1vxV6X2t+Qr4myPYIPL7eeION8UJaekU3KbnWOKacu0Qefb/U7kqzsK2jrf03dJglycFAAvTa8NXW7P9rqFMqGBtIzj9Wjp/vVoy9/3EvTvk+iuYv3U2ip4jT4mYZW9X1RkHLqCk2ftZtW/naMrt+wOPb0dgQWLybOrxo9/2QDqhzu3lsvvU5P9h09ONrTGyHsHhHfjLrca+w4Dpsk+dlnnyV4k5HxAV7j1157TcYo2jIOBPrNN9+Uh9LS0qTHuEmTJoSQDMh7770n8xHPmTNH7iNH8euvv0579uyhhg0b0ieffEJHjx51KbOEVGTn4/JlyxMSXlFCli5dSm+//bad2kSPPPKItKFGDctrK2dSPGmfjBVRPn/RuIkFrly7KQj4LUnCBQ8XzFh+2D0HPlD4EcCf267kdENIsv4aWbZsGb311lt5QEQsPxZInz59aOLEiYQsMBA8eN4NgpRveAB2R+rXDhFvgCiXKDdrVMYdNbINbIAtwcHBbuvQNvxi1h6as8i+40BbV20n7U2ji5ezafL4jqqoUK0V4fSFR9lVgg/gYafeVhD/1LNXC9X34suTAdmFc+KLDztTbExZh6YIfx89//dYatagAg17fS19OXs31a9T3qcPLNeyc2j8J1toecIRwSUcmi/Is0g8sPIwLf71iAjhqSXS0Tb3qWfZ3oOjo7PAb3/s+xuFVzyO6tR0//9W34dNkow43oULF9K7775Ls2fPlp5f5BPGAB5Hnsx33nmHrl69Kj3H6AgeYhDnxo0by5AKlKkBMMhbDJIML5Urqdegw5FUqFBBHka/EKR9e/HFF+W2rQ8Qeghm0IK46rEBSUbcotFy+6Z44gvELzufX7fRHbO+Qo+A/hrBNaCukXPnztH8+fOpQ4cO8voEGOoawRskSPny5eXazA9HHkHtMa1H0Gh78F/mrgQF4g1QEbqvbRglbEqjIHGz9URgi1Ek+aKbD/Tn0h1PjOTJ+flDWxBlPfH0tV3L/ptC85YcoO27z0lTmjWoSI/1qk1x91l7NX1ta2Hsf7AYIJkfQdaed8smFWmkCJF5b8oWERLzJ3VsGynemGtreGf7knhbNHhMAu3VvS26t3UVeqx3bWrfopI0ZMOWMzT7l/20YYsl//stEdry09KDdDTlMk0a15FKBPnAeGGZenB0Fa0bgjeNHree5k7rJh9wXG1vq75NkoyK8MSCJGMA39ChQ2X4BeKJBwwYYEsP/fnnnzLjRb9+/SQpRiUV5oCBgFi0YpY3qmXLlrKbP/74Q3qzMfhIDUDS9q/fRkw0BCnjXBUQ5fJlAilNvAIzQkqVKCaoMZNjI7AsLDpUuIUR5+PoGtm6daskyZ07d6bnnnsuT3eeXCN5FBWQHQxYdlcWrzlD4WFB9NKA6pQtYgHnrzhNrw52f4ZPT2yxdw54na+VNDE7KDxJbZtVpnoxeTNq/LLqMHHEohYt87ff/3QbzV6Y1+O/TZBlLPsP16ehg/xvwKH5qHi3h4lfbicsEO3DuSMr+navRTN/SqYTqZm0ev0Jiuto7Ot/R33jWJZ4E22LIA8e2ISee7xenuYdWlYiLJNn7KQZcyzx+aiwdecZeuWNdTTlnY7ijVjBuvKB+8df7KD/G2xMXLhdkqyQRBjCl19+KWOKN23aZJMkgySOHTtWzlqH0AwlmF4Vgnys2nKUYSCQGVKxYkVJ0pHzePTo0ZLs59cP7P/6669l3uf7778/v+pWx+FdrxUdZBhJblC7JPXoUk3iCZwQ0oI+1GJlABcwAi4g4OgasfemyNNrxAXz/KaqO8QUGS227rpAq9ado0H9q8pz6fNgBI2asJvmLjtNzRuWcSvThTu25Aek3mu6M/m8JMn3Cu/X471j8jRfv/lUgXhsN/PNQh5ATN5ZuuZYLkEe2C+WnnjY8oA1c8EBQcD2SkLTRLzav7e18xNgmWzyXaFeUAVJKBGaAHn0oVr0sojVF7fnXIHnuFdcTZmB5Nd1x71OksdN3GrlQe7ULkoSZNj/qRiPMH/ZQWlv3x4xIp1gQ/nAtVOE821J+isBweYdqfTJV0k08nnL2/bcEywAGwgnw9sWhL94KvmSZHSAfMK4eYaEhNjsD4Pxdu/eLWOTy5b9K3YHBBuhG8gYoQby2VRgcOHLL79MWIYNG0bffPNNvtonTJggvd6vvPJKbiYJR42ABUgDRBHX5g3KUGLSJUfNnD4GXUqvaoR9FkbAKATUNYLJdPAQrAShTwi9QJiSVtQ1gvr6gbzaep5uO+utUf24Wl+1c2btahiVPqNF1UhLDHF4WCAFBxWjuUtOysWdTBeu2uLM+XEd/0Xg6znJ0rhhg5rIgWHK0hHxjalEYFGa/sNuQZb3MUlWwBi4dvSf8vH0HfT9fMt3gy4Re3xNxPPqiSRyWJudx9rWKW/ceoZWrD1qdSj+7w1kGQYjItZaCX5H16/n0HDxu3qqX908JBl1Zv2cTD07Vzc0xlf1bfZ6zITfaZ4IuygtBlF6IjYDTp566ik52A0TDiDLBSYRASns1KmTVV/ISvHRRx8R4hzr1q0rCTFIcUpKiqz76KOP0sGDBwn5hxECsX79enrjjTdkWiNUQAo4hENgilyjBJkq4BFOSEiQZPnaNcvIZ71+pG6DLUh1h4wesNFZUSRWzYp3b5swqlDWsy8DfUMHdIGIQLfqx1m7uB4j4AwC6hpZvXp1nmsEJPnVV1/NDVHSXyMg13eLqAdhZ89Xn9Hit0TLuIjNSRcoK/uvcQvIdOGquGqLM/r/89VO0i7zFlu8S+v+OJWnHHXSL1zjcAtnQDWozuHjF6Smh+NqWGnE63zIvkMZVse4wFwElq4+YtWBrTKrSl4q+HzmLps91a1pcV6uTDhqdXyRCLGCNKwbZnUMvsAPP9tmVV4QChA+Nn7iZo9NtelJxgxP8MCqkd3ISIFBeXFxcVYdIoZRJdt/4oknco+DWCMEAzmR4QVBlglM/wypVauWzLGMbUz3ivYYmJLfxB+o76xgghCEeaBfpLwaOHCgjDfGYMHk5GRZ9sMPP8jtmJgYeb7wmOcnIK3qhgUSi3NDSERgYCD17lKOvppnGQCYnx57x6EDulQ4CvpQwt5khQSvjUDArGvECNsKog59RotGsWXkadSrVZqKidm5buVY3j41EW+K/EFURge9LX9sO01Y9BJW1pLWU1/O+8YjEFQ8gK5dvynuwTl2lTs6ZreRDw7gt++JFC1gMbGenKunbe29cM7KvinzOmOWQHtiL/b41i37v0F7uvyl/M5UFh6ZY5MkI1/whx9+KGfZwwA+bQgFekPaNiwQ5Eg+duyY3Lb1AWKHAYBYQIihT6VnQ3286kWyfMRJGikg3Eg79+2338q0dHhdrBfkRx45ciTFx8e7TdBBYpErGiPP72tTUYwKzaQ1ie6Nin+gTUmpA7qgU0uQ9bbzPiPgKQLeukY8tdNX7bUPxM7YgFyjuAnd10pltLDckCqWD6SPxzakjdsyaPaSEyLThf0blb1+zHhAnvxOpzzdHT+ZSe9P3SKyJ9SRo/K1B9+dtKXAepJtxfRqz80ft2NqlCHMNLdg5VGZWkxr47zFh+SufnClto4/bTdv6FlcaOum4X5zOt271MgTbgHDUOYvMmRgY3pxzBorc/buzyBk3ujWuYYModBW6H3H/l1iTIItGfpsY1vFfl9WTjzU/3NkK4/ttEmSoRXezKpVq3rcgVZBVJT1KE94b+GpNkMQsjBo0CC5IPwjMTFREnq8Um7btm1u3ld3+lY3LazRD2KuQTr6dQunW7dTae0m2yEe9vq6r3UJ2RY6oAs6oVst9tpxOSPgCQJmXiPu2KUGXjmKC9TqdbW+tm1+28BGvU3Lry6OL/41lcLLWzJaXL95WxCcVKpf2zL5S0R4EGEAX8rprDzlzuhFHdhitLRrnvd/N6SkJVysWlRp0h8LDg4oEAP39Bg5iunV1/Wn/QF969GYCRvos++SKPPqDXqqb10xs+stEYe8n35cuE+aigksCoLUql6GZnzUlX7742Ruvt4jKRdprdjXS4M6YdSqyV+/y0ZiAqVO7SP11UzdH/nWBmHbCRr+XFMxSUjdPH2NiG9CJcTD8PzllgeVv/Wukxt7rP6L8jQQO87+l+nbubMPItxTEGFkqdHKt/OSJUlG7HRJkT1rrgitCggoIh+IVez0jNl7tU3kdh8xMNGIwW9Wir1QMP5/23kcjwwz7ZJkL5yDV7uIjo4mLEYIiKs25AI6QfYxsBE31b5xNykyLI1WbrhO6Zccv6oICy1KcR0CqV2LCjL/LHRAF26KWk8y+mRhBMxEwMhrxEw7vaUbjgJnSHJuRov15+jZx6pJ8x59qDKNHL/LKqOFvfL8zgm2sLiOgL2YXgxY8mfpKmYN2967riTEyGaBRSsvPdXYytuvPe5v241jyxMWrWCii5/vkE2Ut2hUif4jJqsJEgMTfSkdWlWWJHnxqqNWJBm3Ycyk5y+z6dnCaczQ5nTo2MU8GS6QB3m6mBEw/vFYmc0CGS208sFn22XaN21Z0/oV5aQi2rKCso23YW2bGfMG4q4hyWZ8uYq4gsxigRcY5BlLh1ZFqX5MBu3Ym0UHj9+klNQilJFpsaKcSBISHXGbYqoGUJPYYEIMOCYxKVOmjNSh9LEX2YxvjXUyAs4hAGKa34Qi+owW1aMsGS0qlCtOJW1ktLBXnp9FRpLkwDskBAPytIKBLhAM3DuXZtlWxzFwr0qlUmq3wKwLStyuLUBHv9xUTkX/4y/7ZOgF6rRrUZn6i7Rd97XzrnfVln2elo0d3pLCK5Skz2fupHvEJBcf/bODcA753hnUo3N1kSYtiQ6JwZOLVx+jniIdqzOiPMYzZifT5K93ONPElDrBJQJo6nudrHIl45x27U2nJ8W05q3uhLBg+uf5Sw7RJpHuTSsgyJPwwOKjyUS0tri6HRURQiMMTFvHJNnVb+BOfeVNVkQZMcQQeIJBcjHwDmETISGXqWn9K4QMGyqNE7zEKjyjdOnSMuYb65IlS0oPMnRpCbLq407XvGIECj0C2leX6uajTlp7TJWZscb1iPESjkSf0SJhYxo93TeakNHiqi6jRdPYULvljvrAMdhilMR1rEoLxeQgrg7ce2lAXu+TUfaYqcdRTK+Z/Rqlu9v90YSlsMoLT9anBiKrAmaA85eXpZhlbnh8U3rzo0R6b/IWMc1xaSsvuL3vY+fe8/TZzCR7h71WHirSnk0X02m//fFmWvnb0dwwl3WbThIWeyKoCz0cV0tMxNFCcBjfPbBUDAsmd2b4LB5QlD54/R7DZtsDTkyS7f1anCi3RZRRBo+yGswH7zC8UZgMAOm0ICobBm58WECYVYgFCDQTZCfA5yqMgMkIqAG0jkIuEHOszVyRX0YLdzJdqP8So04XXqTERY8Zpc6v9TiK6fUXwxUhMOLhr5LwzBY0wYxv/ia9ulaX3vt5Sw5S/OjVNETMVjewf974ZL3NC1cepX9N2SpCtG7LWF9MaOFLAdmfMKYNvfhkA/pq9h5alnBUOOosGXb0dmHQcW+RbnBg/1iKrOT739CoF5uLNJQ75KyFelvt7UeKN13/EHHkdWoamz2oiAgNsI2aPUu43AoBBSHWWHJE3hGscXPFAnIMLzLKIfA0gwyDLOMGqDzHKGeCbAUvFzACPkMgPT09X29y6tls4SHOEHlGy1CNaEu4BQx2tdzeSSK7EMKxCpM06jSJdib8w7BTemjAQrc8T1oDQDCXftdLW+SVbbzynuwiIbBlWI3oMjT0mcaGDXQz+juyZbM/l4EZjX0/kZYLcgmpUimE+veqTQ8/VIPgqb10+QadPHOFduxJo1+WH6b9RzJkvQc6RNP7r7Wnlt1ny339mzBZ6IOP6zdyRPaty5RyKlMslyXXqC4G6UZFhhDW/hDq4gNY8u2SSXK+EDlXQUuU0ULtgxxjW+0rbYoMgyxDsG9rLQv5gxFgBHyCAK5fpLjUX7/eMgb/C9WqVZMP1d7q0xv9GE3APCWaRhNMb2Bodh9Gf0dm22uW/h8WHKQpIsYYuYYdCbLDjBQe0IfjqjuqxscKGAIcbmHQF4abGW6kiuwqtfAS27vBauva21Z6eM0IMALeRwAPsRhYe/687RyiZluEvtWDtNl9FWT9yAaBhYURMBqBJx6JoR5dq9GcRQcp+cB5Opl6hU4Ibyzu62HlSlDVqFDqfI/4/XWMlhN2GN0/6/MtAuxJNgF/W6RYX6YlxcoEW2XqGK8ZAUbAdwhgIqTs7GyvGoBxCrZyy3vVCO6MEWAEGIG7GAHfJiQspMCD7KpFnaLaV2tb5aqM14wAI+BfCISHh+fJW262dRifgD5ZGAFGgBFgBHyHAJNkk7FXpNje2uTuWT0jwAgYgADyFEdERBigyTkV6MvI3MjO9cq1GAFGgBFgBLQIcLiFFg3eZgQYAUbAAQJZWVmUmpqam6nGQVW3DsGDDIKM9HMsjAAjwAgwAr5FgEmyb/Hn3hkBRqCAIYCc52fPnjU8RhkxyAixYA9yAftBsLmMACNQaBFgklxov1o+MUaAETATgYyMDMKiH5Trap8IxUIWCywsjAAjwAgwAv6DAJNk//ku2BJGgBEoYAggjzKmrs7MzJQTB7liPtJDYhp7TBbCad5cQY7rMgKMACPgHQRMJcmeeli8AwH3wggwAoyA5wggXhkLwjGwqImEoBneYhBhhFJgQcwxxx17jjlrYAQYAUbATAQMJcl6Uqz21drME2HdjAAjwAgwAowAI8AIMAKMgFEIGDLjniLB2nVOTo6M1UMZtpWoOmqf14wAI8AIMAKMACPACDACjIC/IeARSVaEF2tFhkGIFUFGzB0WpDXC60YWRoARYAQYAUaAEWAEGAFGoCAg8P9MGXCClYiVlgAAAABJRU5ErkJggg==;" vertex="1" parent="1">
          <mxGeometry x="482" y="399" width="713" height="42" as="geometry" />
        </mxCell>
        <mxCell id="lkaNOGTGJZpjp38PW3jR-2" value="" style="endArrow=classic;html=1;rounded=0;strokeWidth=2;" edge="1" parent="1">
          <mxGeometry width="50" height="50" relative="1" as="geometry">
            <mxPoint x="600" y="430" as="sourcePoint" />
            <mxPoint x="600" y="540" as="targetPoint" />
          </mxGeometry>
        </mxCell>
        <mxCell id="lkaNOGTGJZpjp38PW3jR-3" value="" style="endArrow=classic;html=1;rounded=0;strokeWidth=2;entryX=0.5;entryY=0;entryDx=0;entryDy=0;exitX=0.418;exitY=0.971;exitDx=0;exitDy=0;exitPerimeter=0;" edge="1" parent="1" source="lkaNOGTGJZpjp38PW3jR-1">
          <mxGeometry width="50" height="50" relative="1" as="geometry">
            <mxPoint x="802" y="430" as="sourcePoint" />
            <mxPoint x="802" y="610" as="targetPoint" />
            <Array as="points">
              <mxPoint x="780" y="460" />
              <mxPoint x="750" y="460" />
              <mxPoint x="750" y="590" />
              <mxPoint x="802" y="590" />
            </Array>
          </mxGeometry>
        </mxCell>
        <mxCell id="lkaNOGTGJZpjp38PW3jR-4" value="" style="endArrow=classic;html=1;rounded=0;strokeWidth=2;" edge="1" parent="1">
          <mxGeometry width="50" height="50" relative="1" as="geometry">
            <mxPoint x="830" y="440" as="sourcePoint" />
            <mxPoint x="830" y="500" as="targetPoint" />
          </mxGeometry>
        </mxCell>
        <mxCell id="lkaNOGTGJZpjp38PW3jR-5" value="" style="endArrow=classic;html=1;rounded=0;strokeWidth=2;entryX=0.5;entryY=1;entryDx=0;entryDy=0;" edge="1" parent="1" target="lkaNOGTGJZpjp38PW3jR-16">
          <mxGeometry width="50" height="50" relative="1" as="geometry">
            <mxPoint x="870" y="410" as="sourcePoint" />
            <mxPoint x="870" y="680" as="targetPoint" />
          </mxGeometry>
        </mxCell>
        <mxCell id="lkaNOGTGJZpjp38PW3jR-6" value="" style="endArrow=classic;html=1;rounded=0;strokeWidth=2;entryX=0.5;entryY=0;entryDx=0;entryDy=0;" edge="1" parent="1" target="lkaNOGTGJZpjp38PW3jR-17">
          <mxGeometry width="50" height="50" relative="1" as="geometry">
            <mxPoint x="926" y="433" as="sourcePoint" />
            <mxPoint x="926" y="543" as="targetPoint" />
          </mxGeometry>
        </mxCell>
        <mxCell id="lkaNOGTGJZpjp38PW3jR-7" value="" style="endArrow=classic;html=1;rounded=0;strokeWidth=2;entryX=0.5;entryY=1;entryDx=0;entryDy=0;" edge="1" parent="1" target="lkaNOGTGJZpjp38PW3jR-23">
          <mxGeometry width="50" height="50" relative="1" as="geometry">
            <mxPoint x="975" y="400" as="sourcePoint" />
            <mxPoint x="975" y="480" as="targetPoint" />
          </mxGeometry>
        </mxCell>
        <mxCell id="lkaNOGTGJZpjp38PW3jR-8" value="" style="endArrow=classic;html=1;rounded=0;strokeWidth=2;" edge="1" parent="1">
          <mxGeometry width="50" height="50" relative="1" as="geometry">
            <mxPoint x="1027" y="428" as="sourcePoint" />
            <mxPoint x="1027" y="478" as="targetPoint" />
          </mxGeometry>
        </mxCell>
        <mxCell id="lkaNOGTGJZpjp38PW3jR-9" value="" style="endArrow=classic;html=1;rounded=0;strokeWidth=2;" edge="1" parent="1">
          <mxGeometry width="50" height="50" relative="1" as="geometry">
            <mxPoint x="1074" y="434" as="sourcePoint" />
            <mxPoint x="1074" y="544" as="targetPoint" />
          </mxGeometry>
        </mxCell>
        <mxCell id="lkaNOGTGJZpjp38PW3jR-10" value="" style="endArrow=classic;html=1;rounded=0;strokeWidth=2;" edge="1" parent="1">
          <mxGeometry width="50" height="50" relative="1" as="geometry">
            <mxPoint x="1120" y="410" as="sourcePoint" />
            <mxPoint x="1120" y="320" as="targetPoint" />
          </mxGeometry>
        </mxCell>
        <mxCell id="lkaNOGTGJZpjp38PW3jR-11" value="" style="endArrow=classic;html=1;rounded=0;strokeWidth=2;" edge="1" parent="1">
          <mxGeometry width="50" height="50" relative="1" as="geometry">
            <mxPoint x="1180" y="420" as="sourcePoint" />
            <mxPoint x="1240" y="420" as="targetPoint" />
          </mxGeometry>
        </mxCell>
        <mxCell id="lkaNOGTGJZpjp38PW3jR-12" value="&lt;font style=&quot;font-size: 16px;&quot; face=&quot;Calibri&quot;&gt;Slider to adjust the size of the network displayed&lt;/font&gt;" style="rounded=1;whiteSpace=wrap;html=1;" vertex="1" parent="1">
          <mxGeometry x="500" y="540" width="220" height="60" as="geometry" />
        </mxCell>
        <mxCell id="lkaNOGTGJZpjp38PW3jR-13" value="&lt;font style=&quot;font-size: 16px;&quot; face=&quot;Calibri&quot;&gt;Show the network in fullscreen&lt;/font&gt;" style="rounded=1;whiteSpace=wrap;html=1;" vertex="1" parent="1">
          <mxGeometry x="672" y="610" width="220" height="60" as="geometry" />
        </mxCell>
        <mxCell id="lkaNOGTGJZpjp38PW3jR-15" value="&lt;font style=&quot;font-size: 16px;&quot; face=&quot;Calibri&quot;&gt;Network View&lt;/font&gt;" style="rounded=1;whiteSpace=wrap;html=1;" vertex="1" parent="1">
          <mxGeometry x="774.25" y="500" width="128.5" height="30" as="geometry" />
        </mxCell>
        <mxCell id="lkaNOGTGJZpjp38PW3jR-16" value="&lt;font style=&quot;font-size: 16px;&quot; face=&quot;Calibri&quot;&gt;Table View&lt;/font&gt;" style="rounded=1;whiteSpace=wrap;html=1;" vertex="1" parent="1">
          <mxGeometry x="815" y="290" width="110" height="30" as="geometry" />
        </mxCell>
        <mxCell id="lkaNOGTGJZpjp38PW3jR-17" value="&lt;font style=&quot;font-size: 16px;&quot; face=&quot;Calibri&quot;&gt;Save the subnetwork&lt;/font&gt;" style="rounded=1;whiteSpace=wrap;html=1;" vertex="1" parent="1">
          <mxGeometry x="850" y="550" width="150.5" height="30" as="geometry" />
        </mxCell>
        <mxCell id="lkaNOGTGJZpjp38PW3jR-23" value="&lt;font style=&quot;font-size: 16px;&quot; face=&quot;Calibri&quot;&gt;Save the subnetwork as an image&lt;/font&gt;" style="rounded=1;whiteSpace=wrap;html=1;" vertex="1" parent="1">
          <mxGeometry x="902.75" y="330" width="145" height="40" as="geometry" />
        </mxCell>
        <mxCell id="lkaNOGTGJZpjp38PW3jR-25" value="&lt;font style=&quot;font-size: 16px;&quot; face=&quot;Calibri&quot;&gt;Enable the Tooltip&lt;/font&gt;" style="rounded=1;whiteSpace=wrap;html=1;" vertex="1" parent="1">
          <mxGeometry x="940" y="480" width="128.5" height="30" as="geometry" />
        </mxCell>
        <mxCell id="lkaNOGTGJZpjp38PW3jR-26" value="&lt;font style=&quot;font-size: 16px;&quot; face=&quot;Calibri&quot;&gt;Switch Graph Layout&lt;/font&gt;" style="rounded=1;whiteSpace=wrap;html=1;" vertex="1" parent="1">
          <mxGeometry x="1010" y="546" width="128.5" height="44" as="geometry" />
        </mxCell>
        <mxCell id="lkaNOGTGJZpjp38PW3jR-27" value="&lt;font style=&quot;font-size: 16px;&quot; face=&quot;Calibri&quot;&gt;Show edge labels&lt;/font&gt;" style="rounded=1;whiteSpace=wrap;html=1;" vertex="1" parent="1">
          <mxGeometry x="1060" y="276" width="128.5" height="44" as="geometry" />
        </mxCell>
        <mxCell id="lkaNOGTGJZpjp38PW3jR-28" value="&lt;font style=&quot;font-size: 16px;&quot; face=&quot;Calibri&quot;&gt;Show legend&lt;/font&gt;" style="rounded=1;whiteSpace=wrap;html=1;" vertex="1" parent="1">
          <mxGeometry x="1240" y="398" width="128.5" height="44" as="geometry" />
        </mxCell>
      </root>
    </mxGraphModel>
  </diagram>
</mxfile>
